<svg viewBox="0 0 20 24" fill="none" xmlns="http://www.w3.org/2000/svg">
<path d="M19.6667 9.18973L19.3975 9.40538C18.872 9.82627 18.4486 10.4067 18.1703 11.0876C17.892 11.7686 17.7687 12.5259 17.8129 13.2826L14.3333 8.38918L19.6667 9.18973Z" fill="#E6E6E6"/>
<path d="M15 13.5928L14.7188 16.8595L14.3808 20.7812L9.84708 20.7942H9.83917C9.08633 20.7941 8.36437 20.4349 7.83208 19.7956C7.5683 19.4788 7.25513 19.2275 6.91047 19.056C6.5658 18.8846 6.19639 18.7964 5.82333 18.7964H5.33333L2.66666 23.5997C2.8768 21.8333 2.77925 20.0338 2.38018 18.3151C1.98112 16.5963 1.28923 14.9958 0.348328 13.6148L0.333328 13.5928L4.66666 16.3947L15 13.5928Z" fill="#2B7CD4"/>
<path d="M6 18.7964L7 21.9986L10 20.7977L8 18.7964H6Z" fill="#CCCCCC"/>
<path d="M18.3333 15.6367V16.035C18.3334 16.8659 18.1518 17.6824 17.8066 18.4026C17.4615 19.1228 16.9649 19.7216 16.3665 20.139C15.7682 20.5565 15.089 20.7779 14.397 20.7812C13.705 20.7845 13.0244 20.5695 12.4233 20.1578L9.28665 18.0098C7.15163 16.5489 5.34677 14.4827 4.02956 11.9917C3.8904 11.729 3.75707 11.4621 3.62956 11.1911C2.40347 8.58724 1.73433 5.65885 1.68206 2.66821C1.67915 2.53212 1.67831 2.39552 1.67831 2.25893L1.67873 1.85165L1.6804 0.400146L2.95623 0.402149C5.94001 0.406551 8.85553 1.47454 11.3333 3.47077C11.5562 3.6504 11.7753 3.83719 11.9904 4.03116C13.6343 5.51337 15.008 7.38404 16.0271 9.52795L17.8129 13.2825C18.154 13.9995 18.3334 14.811 18.3333 15.6367V15.6367Z" fill="#3EA7FF"/>
<path d="M14.7187 16.8595L14.3808 20.7812L9.84708 20.7942H9.83916C9.08633 20.7941 8.36436 20.4348 7.83208 19.7955C7.5683 19.4787 7.25513 19.2275 6.91047 19.056C6.5658 18.8846 6.19639 18.7963 5.82333 18.7963H5.33333V17.9122L14.7187 16.8595Z" fill="#E6E6E6"/>
<path d="M14.3808 20.7812H14.3279C13.2144 20.7815 12.1119 20.5172 11.0838 20.0037L10.7217 19.8226C9.69612 19.3108 8.76494 18.5605 7.98167 17.6151L14.0521 16.9341L14.3808 20.7812Z" fill="#E6E6E6"/>
<path d="M17.1758 19.3913C16.5632 20.127 15.7662 20.6005 14.9074 20.739C14.0487 20.8775 13.1759 20.6733 12.4233 20.1578L9.28665 18.0098C7.15163 16.5489 5.34677 14.4827 4.02957 11.9917C3.8904 11.729 3.75707 11.4621 3.62957 11.1911C2.40347 8.58724 1.73433 5.65885 1.68206 2.66821C1.67915 2.53212 1.67831 2.39552 1.67831 2.25893L1.67873 1.85165L1.6804 0.400146L6.20331 4.35838C6.93082 4.99482 7.63748 5.66095 8.32331 6.35676C8.49581 6.53088 8.66693 6.70734 8.83665 6.88613C9.24332 7.31292 9.64207 7.75006 10.0329 8.19754C10.1946 8.38317 10.355 8.57013 10.5142 8.75843C13.1561 11.8921 15.4006 15.4745 17.1758 19.3913V19.3913Z" fill="#E6E6E6"/>
<path d="M5.83333 3.58585C6.10947 3.58585 6.33333 3.31704 6.33333 2.98544C6.33333 2.65384 6.10947 2.38503 5.83333 2.38503C5.55719 2.38503 5.33333 2.65384 5.33333 2.98544C5.33333 3.31704 5.55719 3.58585 5.83333 3.58585Z" fill="#808080"/>
<path d="M12.6667 15.5942L11.0533 15.7878C10.5755 15.8452 10.0963 15.6942 9.70355 15.3624C9.31077 15.0306 9.03056 14.54 8.91416 13.9805L8.71541 13.0269C9.06849 12.8847 9.39264 12.6547 9.66666 12.3519L12.6667 15.5942Z" fill="#B3B3B3"/>
<path d="M10.1482 18.5962L12.6667 21.9986V19.1966L10.1482 18.5962Z" fill="#B3B3B3"/>
<path d="M4.35875 19.2452L2.66666 23.5997C2.80331 22.4523 2.81031 21.288 2.6875 20.1383C2.65249 19.8126 2.60735 19.4892 2.55208 19.1681C2.46298 18.649 2.34706 18.1369 2.20499 17.6351C2.12374 17.3464 2.03374 17.0612 1.93499 16.7795C1.5355 15.6385 1.00112 14.5726 0.348327 13.6148L0.333328 13.5928L3.76625 16.5373C4.11267 16.8347 4.36155 17.2682 4.46976 17.7627C4.57798 18.2573 4.5387 18.7817 4.35875 19.2452V19.2452Z" fill="#E6E6E6"/>
<path d="M5.83333 3.98614C5.99815 3.98614 6.15927 3.92745 6.29631 3.81749C6.43335 3.70753 6.54016 3.55125 6.60323 3.3684C6.66631 3.18554 6.68281 2.98434 6.65065 2.79022C6.6185 2.59611 6.53913 2.4178 6.42259 2.27785C6.30605 2.1379 6.15756 2.0426 5.99591 2.00398C5.83426 1.96537 5.6667 1.98519 5.51443 2.06093C5.36216 2.13667 5.23201 2.26493 5.14044 2.42949C5.04887 2.59406 5 2.78753 5 2.98545C5.00025 3.25075 5.08813 3.50511 5.24436 3.69271C5.40058 3.88031 5.6124 3.98584 5.83333 3.98614V3.98614ZM5.83333 2.78531C5.8663 2.78531 5.89852 2.79705 5.92593 2.81904C5.95334 2.84103 5.9747 2.87229 5.98731 2.90886C5.99993 2.94543 6.00323 2.98567 5.9968 3.02449C5.99037 3.06332 5.97449 3.09898 5.95118 3.12697C5.92788 3.15496 5.89818 3.17402 5.86585 3.18174C5.83352 3.18946 5.80001 3.1855 5.76955 3.17035C5.7391 3.1552 5.71307 3.12955 5.69476 3.09664C5.67644 3.06373 5.66667 3.02503 5.66667 2.98545C5.66672 2.93239 5.68429 2.88152 5.71554 2.844C5.74678 2.80648 5.78915 2.78537 5.83333 2.78531V2.78531Z" fill="black"/>
<path d="M6 8.78945C6.88375 8.78825 7.73102 8.36615 8.35592 7.61574C8.98083 6.86534 9.33234 5.84791 9.33333 4.78668H8.66667C8.66587 5.63567 8.38466 6.4496 7.88473 7.04992C7.38481 7.65025 6.707 7.98793 6 7.98889V8.78945Z" fill="black"/>
<path d="M10.1464 12.3318C10.3553 12.0354 10.5229 11.7004 10.6428 11.3398L10.0238 11.0424C9.85307 11.56 9.55638 12.0038 9.17247 12.3159C8.78856 12.628 8.33525 12.794 7.87163 12.7922H7.66667V13.5928H7.87163C8.07413 13.5927 8.2761 13.5682 8.47451 13.5196L8.59071 14.0777C8.7194 14.683 9.01182 15.2198 9.42206 15.6039C9.83231 15.988 10.3372 16.1976 10.8573 16.1999C10.9332 16.1999 11.0098 16.1954 11.0865 16.1862L12.6998 15.9924C12.7641 15.9847 12.8251 15.9548 12.8755 15.9062C12.9258 15.8576 12.9633 15.7925 12.9834 15.7188C13.0036 15.6451 13.0054 15.5659 12.9887 15.491C12.9721 15.416 12.9377 15.3485 12.8897 15.2966L10.1464 12.3318ZM11.0202 15.3896C10.6223 15.4351 10.224 15.3084 9.89706 15.0322C9.57015 14.756 9.33622 14.3486 9.23747 13.8835L9.11022 13.2723C9.30444 13.1665 9.48856 13.0358 9.65938 12.8825L11.8832 15.286L11.0202 15.3896Z" fill="black"/>
<path d="M19.991 9.09757C19.9754 9.01807 19.9398 8.94623 19.8892 8.8917C19.8385 8.83717 19.7752 8.80255 19.7077 8.7925L15.7332 8.20054C14.3265 5.68094 12.4254 3.61536 10.1973 2.1857C7.96931 0.756048 5.48272 0.00617571 2.95656 0.00212549L1.68068 6.52992e-10H1.68021C1.59188 -6.0538e-06 1.50716 0.0420901 1.44466 0.117042C1.38216 0.191993 1.34699 0.29367 1.34688 0.399739L1.34484 2.2584C1.34185 4.75004 1.75813 7.21672 2.56868 9.51039C3.37923 11.8041 4.56734 13.8774 6.06171 15.6061L4.7149 15.9713L0.491368 13.2403C0.423431 13.1964 0.344908 13.1821 0.269191 13.2C0.193474 13.2178 0.125253 13.2666 0.0761635 13.3381C0.0270739 13.4096 0.000155963 13.4993 6.7565e-07 13.592C-0.000154612 13.6846 0.0264623 13.7745 0.075312 13.8462L0.0902249 13.8681C1.00054 15.2072 1.67009 16.7581 2.05672 18.4232C2.44334 20.0883 2.53867 21.8315 2.33668 23.5431C2.32598 23.6329 2.34103 23.7245 2.37937 23.8027C2.41771 23.881 2.47706 23.9412 2.54768 23.9736C2.6183 24.006 2.69599 24.0087 2.768 23.981C2.84002 23.9534 2.90208 23.8972 2.944 23.8217L5.51171 19.1966H5.76659L6.65732 22.1355C6.6869 22.2333 6.74708 22.3135 6.82508 22.3589C6.90308 22.4043 6.99276 22.4114 7.07505 22.3787L10.0639 21.1939L11.6217 21.1894L12.4175 22.2645C12.4624 22.3252 12.5216 22.368 12.5873 22.3873C12.6529 22.4067 12.7219 22.4016 12.7851 22.3727C12.8483 22.3439 12.9027 22.2926 12.9411 22.2258C12.9794 22.159 13 22.0797 13 21.9986V21.1854L14.3819 21.1814V21.1814C15.5179 21.1796 16.607 20.6368 17.4103 19.672C18.2136 18.7072 18.6654 17.3993 18.6667 16.0351V15.6365C18.6662 14.7746 18.4857 13.9265 18.1417 13.17C18.115 12.4973 18.2337 11.8278 18.4861 11.2265C18.7386 10.6252 19.1162 10.1125 19.5825 9.7382L19.8516 9.52276C19.9082 9.47745 19.9519 9.41242 19.9768 9.33642C20.0017 9.26041 20.0067 9.17707 19.991 9.09757ZM2.01765 2.77829C2.53716 2.98826 2.9979 3.36735 3.34851 3.87332C3.69912 4.37928 3.92583 4.99223 4.00335 5.64384L4.6633 5.53063C4.56289 4.68603 4.25806 3.89546 3.78668 3.25712C3.3153 2.61877 2.69814 2.16079 2.01186 1.94004L2.0131 0.801115L2.95562 0.802679C5.55175 0.808011 8.10079 1.63543 10.3456 3.20145C10.6811 3.43569 11.0079 3.68525 11.3259 3.95013C11.167 7.97516 8.3905 11.1911 5 11.1911H4.0141C4.00999 11.1826 4.00574 11.1743 4.00164 11.1658C2.76906 8.61194 2.08709 5.72888 2.01765 2.77829V2.77829ZM2.9804 19.7862L4.19656 18.3258C4.19593 18.5851 4.14824 18.8411 4.05682 19.076L3.10455 21.5263C3.09494 20.9437 3.05347 20.3624 2.9804 19.7862H2.9804ZM2.83018 18.8345C2.75757 18.4511 2.67099 18.072 2.57043 17.6974L3.62624 17.8786L2.83018 18.8345ZM2.31476 16.8449C2.13064 16.2907 1.9157 15.752 1.67139 15.2324L3.57259 16.8631C3.65348 16.9326 3.72837 17.0116 3.79616 17.099L2.31476 16.8449ZM6.51084 19.3114C6.78858 19.406 7.05043 19.558 7.28458 19.7608L6.69029 19.9035L6.51084 19.3114ZM6.92094 20.6645L7.92746 20.4228C8.14882 20.6227 8.39085 20.7873 8.6475 20.9123L7.17317 21.4967L6.92094 20.6645ZM9.84637 20.394H9.84045C9.17588 20.3919 8.53883 20.075 8.0676 19.5123C7.77359 19.1573 7.42386 18.8759 7.03866 18.6843C6.65346 18.4927 6.24044 18.3947 5.8235 18.3961H5.33333C5.27845 18.3961 5.22443 18.4123 5.17604 18.4434C5.12766 18.4745 5.08642 18.5195 5.05598 18.5743L4.76168 19.1044C4.87218 18.6866 4.89261 18.2419 4.82107 17.812C4.74953 17.3821 4.58836 16.981 4.35263 16.6463L4.50862 16.7471C4.57943 16.7929 4.66164 16.8064 4.74009 16.7852L6.66116 16.2642C7.42224 17.057 8.24626 17.7582 9.12139 18.3577L9.94111 18.919L11.0304 20.3906L9.84637 20.394ZM12.3333 20.9458L10.9661 19.0987L12.3333 19.5092V20.9458ZM18 16.0351C18.0001 16.7493 17.8535 17.4526 17.5733 18.0826C17.2931 18.7126 16.8878 19.25 16.3934 19.6472C15.8991 20.0443 15.3308 20.289 14.7389 20.3596C14.147 20.4301 13.5498 20.3244 13 20.0518V19.1966C13 19.1074 12.9751 19.0207 12.9294 18.9503C12.8837 18.8799 12.8196 18.83 12.7475 18.8083L10.0808 18.0078C10.0373 17.995 9.992 17.9931 9.94778 18.002L9.45164 17.6623C7.42738 16.2749 5.70546 14.3317 4.42679 11.9917H5C8.60096 11.9917 11.5751 8.70949 11.9579 4.50568C13.4912 5.93101 14.7756 7.70508 15.7378 9.72657L17.5236 13.4812C17.8355 14.1378 17.9997 14.8806 18 15.6365V16.0351ZM18.2198 10.2189L17.5182 9.65723L17.1484 10.3233L17.8751 10.905C17.7378 11.2394 17.6339 11.5921 17.5658 11.9558L16.3167 9.32952C16.2762 9.2445 16.2352 9.15992 16.1937 9.07579L18.7906 9.4626C18.578 9.68901 18.3866 9.94261 18.2198 10.2189V10.2189Z" fill="black"/>
</svg>
