<svg height="480pt" viewBox="0 0 480.00142 480" width="480pt" xmlns="http://www.w3.org/2000/svg"><path d="m24 376v64l-12.6875 12.6875c-3.234375 3.238281-4.203125 8.101562-2.453125 12.332031 1.75 4.226563 5.878906 6.980469 10.453125 6.980469h76.6875v-72h168v-72h-192c-26.507812 0-48 21.492188-48 48zm0 0" fill="#fec9a3"/><path d="m468.6875 452.6875-12.6875-12.6875v-64c0-26.507812-21.488281-48-48-48h-144v72h120v72h76.6875c4.578125 0 8.703125-2.753906 10.453125-6.980469 1.753906-4.230469.785156-9.09375-2.453125-12.332031zm0 0" fill="#fec9a3"/><path d="m216 328h48v72h-48zm0 0" fill="#2e3e51"/><path d="m376 144h-272c-53.019531 0-96 42.980469-96 96v4.625c.003906 12.632812 3.742188 24.984375 10.753906 35.496094l19.886719 32.558594c5.8125 9.519531 16.160156 15.320312 27.3125 15.320312h62.046875l-44.429688-74.046875c-2.335937-3.898437-3.570312-8.355469-3.570312-12.894531 0-13.839844 11.21875-25.058594 25.058594-25.058594h22.941406v112h224v-112h22.945312c13.835938 0 25.054688 11.21875 25.054688 25.058594 0 4.539062-1.230469 8.996094-3.566406 12.894531l-44.433594 74.046875h62.046875c11.152344 0 21.5-5.800781 27.3125-15.320312l19.890625-32.558594c7.007812-10.511719 10.75-22.863282 10.75-35.496094v-4.625c0-53.019531-42.980469-96-96-96zm0 0" fill="#fec9a3"/><path d="m288 56h-96v-16c0-17.671875 14.328125-32 32-32h32c17.671875 0 32 14.328125 32 32zm0 0" fill="#2e3e51"/><path d="m256 208c30.929688 0 56-25.070312 56-56v-8h-112v8c0 30.929688 25.074219 56 56 56zm0 0" fill="#feb784"/><path d="m165.335938 96.664062-1.054688-2.023437c-6.007812-11.605469-5.527344-25.5 1.261719-36.664063 6.792969-11.160156 18.910156-17.976562 31.976562-17.976562h81.984375c13.34375.003906 25.675782 7.105469 32.371094 18.644531 6.695312 11.539063 6.742188 25.773438.125 37.355469zm0 0" fill="#35455c"/><g fill="#fec9a3"><path d="m240 40c30.929688 0 56 25.074219 56 56v40c0 30.929688-25.070312 56-56 56-30.925781 0-56-25.070312-56-56v-40c0-30.925781 25.074219-56 56-56zm0 0"/><path d="m180 88h4v56h-4c-15.464844 0-28-12.535156-28-28s12.535156-28 28-28zm0 0"/><path d="m300 144h-4v-56h4c15.464844 0 28 12.535156 28 28s-12.535156 28-28 28zm0 0"/></g><path d="m208 40 32 24 32-24zm0 0" fill="#35455c"/><path d="m205.472656 111.59375 5.058594-15.171875 24 8-5.058594 15.171875zm0 0" fill="#3d4d63"/><path d="m245.472656 104.414062 23.996094-8.007812 5.0625 15.171875-23.996094 8.007813zm0 0" fill="#3d4d63"/><path d="m262.3125 151.824219c-14.757812-2.617188-29.863281-2.617188-44.625 0l-3.375-15.648438c16.984375-3.101562 34.390625-3.101562 51.375 0zm0 0" fill="#f7a468"/><path d="m176 263.640625c-16.074219-.09375-31.835938-4.46875-45.65625-12.679687-1.820312-1.019532-3.128906-2.753907-3.609375-4.785157-.484375-2.027343-.09375-4.167969 1.074219-5.894531l.710937-1.03125c2.28125-3.203125 6.652344-4.09375 10-2.035156 23.023438 14.019531 51.941407 14.019531 74.960938 0 3.347656-2.058594 7.71875-1.167969 10 2.035156l.710937 1.03125c1.167969 1.726562 1.558594 3.867188 1.078125 5.894531-.484375 2.03125-1.792969 3.765625-3.613281 4.785157-13.820312 8.210937-29.582031 12.585937-45.65625 12.679687zm0 0" fill="#feb784"/><path d="m304 263.640625c-16.074219-.09375-31.835938-4.46875-45.65625-12.679687-1.820312-1.019532-3.128906-2.753907-3.609375-4.785157-.484375-2.027343-.09375-4.167969 1.074219-5.894531l.710937-1.03125c2.28125-3.203125 6.652344-4.09375 10-2.035156 23.023438 14.019531 51.941407 14.019531 74.960938 0 3.347656-2.058594 7.71875-1.167969 10 2.035156l.710937 1.03125c1.167969 1.726562 1.558594 3.867188 1.078125 5.894531-.484375 2.03125-1.792969 3.765625-3.613281 4.785157-13.820312 8.210937-29.582031 12.585937-45.65625 12.679687zm0 0" fill="#feb784"/><path d="m128 288h224v40h-224zm0 0" fill="#3d4d63"/><path d="m304 288h48v40h-48zm0 0" fill="#2e3e51"/><path d="m376 136h-46.09375c10.160156-15.035156 7.402344-35.300781-6.402344-47.078125 5.871094-22.515625-6.214844-45.828125-28-54-2.515625-19.917969-19.429687-34.8671875-39.503906-34.921875h-32c-19.695312.0507812-36.414062 14.449219-39.382812 33.921875-11.667969 3.425781-21.46875 11.40625-27.1875 22.140625s-6.878907 23.316406-3.214844 34.914062c-11.871094 12.132813-13.589844 30.9375-4.117188 45.023438h-46.097656c-57.410156.066406-103.9335938 46.589844-104 104v4.640625c0 14.105469 4.132812 27.90625 11.890625 39.6875l28 45.855469c-14.964844 10.460937-23.882813 27.5625-23.890625 45.816406v60.6875l-10.335938 10.335938c-5.527343 5.523437-7.183593 13.832031-4.195312 21.050781s10.03125 11.925781 17.84375 11.925781h76.6875c4.417969 0 8-3.582031 8-8v-64h272v64c0 4.417969 3.582031 8 8 8h76.6875c7.8125 0 14.855469-4.703125 17.84375-11.921875 2.988281-7.214844 1.335938-15.523437-4.1875-21.046875l-10.34375-10.34375v-60.6875c-.011719-18.257812-8.933594-35.359375-23.902344-45.816406l27.863282-45.597656c7.84375-11.847657 12.03125-25.738282 12.039062-39.945313v-4.640625c-.066406-57.410156-46.589844-103.933594-104-104zm-56-20c0 9.503906-6.6875 17.691406-16 19.59375v-39.199219c9.316406 1.898438 16.007812 10.097657 16 19.605469zm-16-54.871094c3.921875 5.902344 5.585938 13.019532 4.679688 20.046875-2.199219-.535156-4.441407-.863281-6.703126-.976562-2.804687-11.148438-8.582031-21.328125-16.710937-29.453125-.890625-.890625-1.90625-1.601563-2.824219-2.402344 8.765625.734375 16.710938 5.445312 21.558594 12.785156zm-89.039062-5.929687 20.238281 15.203125c2.847656 2.132812 6.757812 2.132812 9.601562 0l20.222657-15.203125c3.238281 1.910156 6.234374 4.199219 8.921874 6.824219 9.050782 9.015624 14.113282 21.28125 14.054688 34.058593v39.917969c.027344 2.304688-.160156 4.609375-.558594 6.878906-3.394531 23.671875-23.714844 41.21875-47.625 41.128906-23.910156-.09375-44.097656-17.792968-47.3125-41.488281-.367187-2.152343-.535156-4.335937-.503906-6.519531v-40c.085938-16.652344 8.769531-32.082031 22.960938-40.800781zm17.039062-7.199219h16l-8 6zm-8-32h32c10.136719.042969 19.152344 6.445312 22.527344 16h-77.054688c3.378906-9.554688 12.394532-15.957031 22.527344-16zm-51.359375 45.6875c5.378906-8.546875 14.78125-13.71875 24.878906-13.6875h.328125c-9.613281 8.53125-16.457031 19.738281-19.664062 32.183594-3.300782.171875-6.5625.800781-9.6875 1.875-1.167969-7.070313.308594-14.320313 4.144531-20.371094zm3.359375 34.714844v39.199218c-9.320312-1.894531-16.019531-10.089843-16.019531-19.601562s6.699219-17.707031 16.019531-19.597656zm-80 295.597656c-4.417969 0-8 3.582031-8 8v64h-68.6875c-1.339844.003906-2.550781-.804688-3.0625-2.042969-.515625-1.238281-.230469-2.664062.71875-3.613281l12.6875-12.6875c1.5-1.5 2.34375-3.535156 2.34375-5.65625v-64c.027344-22.078125 17.921875-39.972656 40-40h136v56zm264-104v-64h14.960938c9.40625.007812 17.03125 7.632812 17.039062 17.039062.027344 3.109376-.828125 6.160157-2.464844 8.800782l-29.535156 49.257812zm-16 32h-208v-24h208zm-224-32v11.097656l-29.597656-49.417968c-1.59375-2.597657-2.425782-5.589844-2.402344-8.640626.039062-9.394531 7.644531-17 17.039062-17.039062h14.960938zm104 48h32v56h-32zm224 40v64c0 2.121094.84375 4.15625 2.34375 5.65625l12.6875 12.695312c.945312.949219 1.226562 2.371094.710938 3.605469-.511719 1.238281-1.714844 2.042969-3.054688 2.042969h-68.6875v-64c0-4.417969-3.582031-8-8-8h-112v-56h136c22.082031.027344 39.972656 17.921875 40 40zm16-131.359375c-.023438 11.164063-3.34375 22.074219-9.542969 31.359375l-28.6875 46.953125c-5.726562-1.941406-11.726562-2.9375-17.769531-2.953125h-41.878906l37.078125-61.832031c3.175781-5.144531 4.835937-11.082031 4.800781-17.128907-.019531-18.238281-14.800781-33.015624-33.039062-33.039062h-22.960938c-4.417969 0-8 3.582031-8 8v19.472656c-25.484375 16.917969-58.828125 16.101563-83.457031-2.046875l-9.085938 13.152344c15.351563 10.933594 33.695313 16.890625 52.542969 17.0625 13.898438-.046875 27.59375-3.332031 40-9.601563v25.960938h-208v-25.992188c12.40625 6.265626 26.101562 9.554688 40 9.601563 18.851562-.171875 37.191406-6.128906 52.542969-17.066406l-9.085938-13.148438c-24.617187 18.15625-57.964843 18.988281-83.457031 2.078125v-19.472656c0-4.417969-3.582031-8-8-8h-22.960938c-11.90625-.011719-22.898437 6.386719-28.757812 16.75-5.863281 10.367188-5.691406 23.085938.457031 33.28125l37.140625 61.96875h-41.878906c-6.042969.011719-12.042969 1.003906-17.765625 2.9375l-28.800781-47.199219c-6.128906-9.214843-9.410156-20.03125-9.433594-31.097656v-4.640625c.058594-48.578125 39.421875-87.941406 88-88h74.128906c7.253906 28.25 32.71875 48.003906 61.886719 48.003906s54.632813-19.753906 61.890625-48.003906h74.09375c48.578125.058594 87.945312 39.421875 88 88zm0 0"/><path d="m205.472656 111.59375 5.058594-15.171875 24 8-5.058594 15.171875zm0 0"/><path d="m245.472656 104.414062 23.996094-8.007812 5.0625 15.171875-23.996094 8.007813zm0 0"/><path  d="m217.6875 151.824219c14.761719-2.617188 29.867188-2.617188 44.625 0l3.375-15.648438c-16.984375-3.101562-34.390625-3.101562-51.375 0zm0 0"/></svg>