<svg width="130" height="158" viewBox="0 0 130 158" fill="none" xmlns="http://www.w3.org/2000/svg">
<rect width="130" height="158"/>
<g id="hero 1">
<g id="filled outline">
<path id="Vector" d="M56.875 13.6207V8.17241C56.875 6.00495 57.731 3.92627 59.2548 2.39364C60.7785 0.86102 62.8451 0 65 0C67.1549 0 69.2215 0.86102 70.7452 2.39364C72.269 3.92627 73.125 6.00495 73.125 8.17241V13.6207H56.875Z" fill="#A65A14"/>
<path id="Vector_2" d="M79.8958 10.8965H50.1042C43.3732 10.8965 37.9167 16.3849 37.9167 23.1552C37.9167 29.9254 43.3732 35.4138 50.1042 35.4138H79.8958C86.6268 35.4138 92.0833 29.9254 92.0833 23.1552C92.0833 16.3849 86.6268 10.8965 79.8958 10.8965Z" fill="#763A02"/>
<path id="Vector_3" d="M56.875 29.9655H43.3333C41.8967 29.9655 40.519 30.5395 39.5032 31.5613C38.4873 32.583 37.9167 33.9688 37.9167 35.4138C37.9167 36.8588 38.4873 38.2446 39.5032 39.2663C40.519 40.2881 41.8967 40.8621 43.3333 40.8621H56.875V29.9655Z" fill="#FAA366"/>
<path id="Vector_4" d="M86.6667 29.9655H70.4167V40.8621H86.6667C88.1032 40.8621 89.481 40.2881 90.4968 39.2663C91.5126 38.2446 92.0833 36.8588 92.0833 35.4138V35.4138C92.0833 33.9688 91.5126 32.583 90.4968 31.5613C89.481 30.5395 88.1032 29.9655 86.6667 29.9655Z" fill="#FAA366"/>
<path id="Vector_5" d="M97.5 68.1035H32.5V100.793H97.5V68.1035Z" fill="#FAB98B"/>
<path id="RightLeg" d="M34.5312 100.793L16.5987 105.712C13.1926 106.647 10.1865 108.682 8.04356 111.504C5.90059 114.326 4.73964 117.778 4.73958 121.329C4.73954 123.455 5.15578 125.56 5.96452 127.524C6.77327 129.488 7.95869 131.272 9.4531 132.775L15.5729 138.931V147.103H8.80208C7.00635 147.103 5.28416 147.821 4.01438 149.098C2.7446 150.375 2.03125 152.108 2.03125 153.914V158H31.8229V130.759H73.9714V100.793H34.5312Z" fill="#FACFB0"/>
<path id="LeftLeg" d="M97.0248 100.793H56.5365V130.759H99.5753V158H127.63V153.914C127.63 152.108 126.958 150.375 125.763 149.098C124.567 147.821 122.945 147.103 121.254 147.103H114.878V138.931L120.641 132.775C122.048 131.272 123.165 129.488 123.926 127.524C124.688 125.56 125.08 123.455 125.08 121.329C125.08 117.778 123.987 114.326 121.969 111.504C119.95 108.682 117.119 106.647 113.912 105.712L97.0248 100.793Z" fill="#FACFB0"/>
<path id="Vector_6" d="M97.5 89.8965H32.5V100.793H97.5V89.8965Z" fill="#003E67"/>
<path id="Vector_7" d="M78.5417 89.8965H51.4583V136.207H78.5417V89.8965Z" fill="#0071BC"/>
<path id="Vector_8" d="M124.583 53.1207L111.945 43.5862C109.601 41.8179 106.75 40.8621 103.82 40.8621H26.1804C23.2504 40.8621 20.3995 41.8179 18.0554 43.5862L5.41667 53.1207C3.73484 54.3894 2.3698 56.0346 1.42963 57.9259C0.489466 59.8172 0 61.9027 0 64.0172V87.1724L5.41667 98.069H21.6667V84.4483L16.25 81.7241V68.1034L32.5 62.6552V70.8276L40.625 79H56.875L65 70.8276L73.125 79H89.375L97.5 70.8276V62.6552L113.75 68.1034V81.7241L108.333 84.4483V98.069H124.583L130 87.1724V64.0172C130 61.9027 129.511 59.8172 128.57 57.9259C127.63 56.0346 126.265 54.3894 124.583 53.1207V53.1207Z" fill="#FAB98B"/>
<path id="Vector_9" d="M54.1667 21.7931H75.8333C77.2699 21.7931 78.6477 22.3671 79.6635 23.3889C80.6793 24.4106 81.25 25.7964 81.25 27.2414V35.4138C81.25 39.7487 79.538 43.9061 76.4905 46.9714C73.443 50.0366 69.3098 51.7586 65 51.7586C60.6902 51.7586 56.557 50.0366 53.5095 46.9714C50.462 43.9061 48.75 39.7487 48.75 35.4138V27.2414C48.75 25.7964 49.3207 24.4106 50.3365 23.3889C51.3523 22.3671 52.7301 21.7931 54.1667 21.7931V21.7931Z" fill="#FACFB0"/>
<path id="Vector_10" d="M54.1667 122.586C53.2526 122.586 52.3504 122.543 51.4583 122.462V136.207H78.5417V109.851C75.7949 113.787 72.1456 117 67.9026 119.217C63.6596 121.434 58.9479 122.589 54.1667 122.586V122.586Z" fill="#005289"/>
<path id="Vector_11" d="M124.583 53.1207L111.945 43.5862C109.929 42.0663 107.531 41.1421 105.022 40.9176C86.6369 49.8736 66.4694 54.512 46.0417 54.4828C33.8846 54.4919 21.7815 52.856 10.0581 49.6192L5.41667 53.1207C3.73484 54.3894 2.3698 56.0346 1.42963 57.9259C0.489466 59.8172 0 61.9027 0 64.0172V87.1724L5.41667 98.069H21.6667V84.4483L16.25 81.7241V68.1034L32.5 62.6552V70.8276L40.625 79H56.875L65 70.8276L73.125 79H89.375L97.5 70.8276V62.6552L113.75 68.1034V81.7241L108.333 84.4483V98.069H124.583L130 87.1724V64.0172C130 61.9027 129.511 59.8172 128.57 57.9259C127.63 56.0346 126.265 54.3894 124.583 53.1207V53.1207Z" fill="#FACFB0"/>
<path id="Vector_12" d="M59.5833 32.6896C61.0791 32.6896 62.2917 31.47 62.2917 29.9655C62.2917 28.461 61.0791 27.2414 59.5833 27.2414C58.0876 27.2414 56.875 28.461 56.875 29.9655C56.875 31.47 58.0876 32.6896 59.5833 32.6896Z" fill="black"/>
<path id="Vector_13" d="M70.4167 32.6896C71.9124 32.6896 73.125 31.47 73.125 29.9655C73.125 28.461 71.9124 27.2414 70.4167 27.2414C68.9209 27.2414 67.7083 28.461 67.7083 29.9655C67.7083 31.47 68.9209 32.6896 70.4167 32.6896Z" fill="black"/>
<path id="Vector_14" d="M70.4167 38.1379H59.5833V43.5862H70.4167V38.1379Z" fill="black"/>
</g>
</g>
</svg>
