<?xml version="1.0" encoding="iso-8859-1"?>
<!-- Generator: Adobe Illustrator 19.0.0, SVG Export Plug-In . SVG Version: 6.00 Build 0)  -->
<svg version="1.1" id="Capa_1" xmlns="http://www.w3.org/2000/svg" xmlns:xlink="http://www.w3.org/1999/xlink" x="0px" y="0px"
	 viewBox="0 0 512 512" style="enable-background:new 0 0 512 512;" xml:space="preserve">
<path style="fill:#FFD87D;" d="M481.75,286c11.05,0,20-8.96,20-20c0-11.05-8.95-20-20-20h-6.27
	c-5.445-100.137-92.668-180-199.73-180c-32.55,0-63.27,7.39-90.43,20.49v-0.01C171.56,62.3,145.56,46,115.75,46v95.98
	c-19.869,25.117-32.842,54.448-37.76,85.51L9.75,186v160l71.92-43.94c6.43,24.534,18.006,47.641,34.08,67.96V466
	c29.81,0,55.81-16.3,69.57-40.48v-0.01c2.05,0.99,4.11,1.95,6.2,2.87C254.16,363.21,340.89,326,431.95,326c17.267,0,32.006,0,49.8,0
	c11.05,0,20-8.96,20-20C501.75,294.95,492.8,286,481.75,286z"/>
<g>
	<path style="fill:#FFFFFF;" d="M455.75,326h5.99c-29.34,70.29-101.55,120-185.99,120c-30.09,0-58.63-6.31-84.23-17.62
		C254.16,363.21,340.89,326,431.95,326H455.75z"/>
	<path style="fill:#FFFFFF;" d="M375.75,186c22.09,0,40,17.91,40,40s-17.91,40-40,40s-40-17.91-40-40S353.66,186,375.75,186z"/>
</g>
<path d="M376,236c5.52,0,10-4.48,10-10s-4.48-10-10-10s-10,4.48-10,10S370.48,236,376,236z"/>
<path d="M296,176c-5.52,0-10,4.48-10,10s4.48,10,10,10s10-4.48,10-10S301.52,176,296,176z"/>
<path d="M176,276c5.52,0,10-4.48,10-10s-4.48-10-10-10s-10,4.48-10,10S170.48,276,176,276z"/>
<path d="M156,196h-20c-5.522,0-10,4.477-10,10s4.478,10,10,10h20c5.522,0,10-4.477,10-10S161.522,196,156,196z"/>
<path d="M236,256h-20c-5.522,0-10,4.477-10,10s4.478,10,10,10h20c5.522,0,10-4.477,10-10S241.522,256,236,256z"/>
<path d="M196,336h-20c-5.522,0-10,4.477-10,10s4.478,10,10,10h20c5.522,0,10-4.477,10-10S201.522,336,196,336z"/>
<path d="M296,296h-20c-5.522,0-10,4.477-10,10s4.478,10,10,10h20c5.522,0,10-4.477,10-10S301.522,296,296,296z"/>
<path d="M256,176h-20c-5.522,0-10,4.477-10,10s4.478,10,10,10h20c5.522,0,10-4.477,10-10S261.522,176,256,176z"/>
<path d="M196,136h20c5.522,0,10-4.477,10-10s-4.478-10-10-10h-20c-5.522,0-10,4.477-10,10C186,131.523,190.478,136,196,136z"/>
<path d="M296,116h-20c-5.522,0-10,4.477-10,10c0,5.523,4.478,10,10,10h20c5.522,0,10-4.477,10-10S301.522,116,296,116z"/>
<path d="M326,226c0,27.57,22.43,50,50,50s50-22.43,50-50s-22.43-50-50-50S326,198.43,326,226z M376,196c16.542,0,30,13.458,30,30
	s-13.458,30-30,30s-30-13.458-30-30S359.458,196,376,196z"/>
<path d="M15.214,354.533l60.864-37.185c3.943,11.67,9.011,22.967,15.157,33.777L71.81,362.34c-4.783,2.761-6.422,8.877-3.66,13.66
	c2.775,4.806,8.9,6.409,13.66,3.66l20.188-11.656c1.305,1.836,2.644,3.64,4.002,5.422V466c0,5.523,4.478,10,10,10
	c29.21,0,56.534-14.28,73.314-37.795c24.27,10.494,50.014,16.386,76.686,17.562V486c0,5.523,4.478,10,10,10s10-4.477,10-10v-30.231
	c28.771-1.283,56.638-8.093,82.225-20.032l14.114,24.452c2.775,4.807,8.9,6.41,13.66,3.662c4.783-2.761,6.423-8.876,3.662-13.66
	l-13.716-23.763c3.111-1.825,6.182-3.726,9.206-5.713c21.778-14.314,40.308-32.169,54.879-52.695l20.161,11.64
	c4.775,2.756,10.895,1.13,13.66-3.66c2.762-4.783,1.123-10.899-3.66-13.66l-19.413-11.208c2.794-4.924,5.379-9.97,7.744-15.132H482
	c16.542,0,30-13.458,30-30c0-7.676-2.898-14.688-7.657-20c4.759-5.312,7.657-12.324,7.657-20c0-15.546-11.887-28.365-27.048-29.853
	c-2.745-26.338-11.003-52.021-24.201-75.263l19.439-11.223c4.783-2.761,6.422-8.877,3.66-13.66c-2.762-4.782-8.876-6.421-13.66-3.66
	l-20.207,11.666c-16.756-23.56-38.63-43.507-64.049-58.416l13.727-23.781c2.761-4.783,1.121-10.899-3.662-13.66
	c-4.783-2.764-10.899-1.122-13.66,3.662l-14.13,24.48C342.638,64.393,314.566,57.551,286,56.252V26c0-5.523-4.478-10-10-10
	s-10,4.477-10,10v30.239c-26.722,1.174-52.437,7.064-76.68,17.564C172.541,50.283,145.214,36,116,36c-5.522,0-10,4.477-10,10v92.573
	c-1.358,1.781-2.697,3.586-4.002,5.422L81.81,132.34c-4.784-2.761-10.899-1.123-13.66,3.66c-2.762,4.783-1.123,10.899,3.66,13.66
	l19.419,11.212c-9.108,15.997-15.808,32.954-20.015,50.643l-56.019-34.06C8.56,173.42,0,178.185,0,186v160
	C0,353.848,8.603,358.572,15.214,354.533z M126,455.278v-59.353c13.361,12.97,28.549,24.234,45.014,33.313
	C159.906,443.335,143.756,452.703,126,455.278z M276,436c-22.956,0-45.211-3.785-66.357-11.272
	C269.392,368.17,349.666,335.9,432.2,335.9h14.074C414.386,397.056,349.16,436,276,436z M464.83,236H456c-5.522,0-10,4.477-10,10
	s4.478,9.9,10,9.9c23.767,0.006,18.104,0.006,26,0c5.514,0,10,4.586,10,10.1s-4.486,10-10,10h-26c-5.522,0-10,4.477-10,10
	s4.478,10,10,10h26c5.514,0,10,4.486,10,10s-4.486,10-10,10c-12.24,0-41.737,0-49.8,0c-46.595,0-91.946,9.271-134.797,27.553
	c-40.512,17.285-76.756,41.755-107.828,72.785C128.758,386.868,86,326.6,86,256c0-99.913,85.591-180,190-180
	C373.218,76,454.179,145.367,464.83,236z M171.014,82.761c-16.467,9.081-31.655,20.345-45.014,33.313V56.722
	C143.756,59.297,159.906,68.665,171.014,82.761z M20,203.783l47.428,28.836C66.483,240.336,66,248.172,66,256
	c0,13.935,1.525,27.797,4.507,41.314L20,328.172V203.783z"/>
<g>
</g>
<g>
</g>
<g>
</g>
<g>
</g>
<g>
</g>
<g>
</g>
<g>
</g>
<g>
</g>
<g>
</g>
<g>
</g>
<g>
</g>
<g>
</g>
<g>
</g>
<g>
</g>
<g>
</g>
</svg>
