<svg id="Capa_1" enable-background="new 0 0 512 512" height="512" viewBox="0 0 512 512" width="512" xmlns="http://www.w3.org/2000/svg"><g><path d="m23.376 220.917c-27.529-47.804-11.203-108.925 36.466-136.517s108.629-11.207 136.158 36.597z" fill="#ff9c9b"/><path d="m194.911 249h-80.558l-34.874-60.557 60.418-34.972z" fill="#fff"/><path d="m376.074 74.67c-9.249 19.869-40.582 34.786-40.582 34.786l-60.548 139.544h-50.444l69.063-159.152s-8.617-33.55.633-53.409c4.238-9.091 17.565-12.908 27.647-8.779 12.081 4.952 17.605 18.392 12.604 29.14 5.001-10.748 19.021-15.067 30.57-8.98 9.641 5.082 15.295 17.759 11.057 26.85z" fill="#ffe6b4"/><path d="m456 249s46-13.5 46-67c0-22.333-24-43-58-31 0 0-55-57-89 11 0 0-59.174-23.354-77.753 19.466s25.753 67.534 25.753 67.534z" fill="#dfef9b"/><circle cx="238" cy="225" fill="#ddb9a3" r="70"/><path d="m256 486c-110.457 0-200-89.543-200-200v-37h400v37c0 110.457-89.543 200-200 200z" fill="#cbf4fb"/><g><circle cx="123" cy="115" r="10"/><circle cx="53" cy="156" r="10"/><circle cx="80" cy="126" r="10"/><path d="m493.175 146.565c-12.657-8.956-29.374-11.336-46.602-6.811-9.344-8.084-31.574-24.308-55.976-20.564-16.085 2.463-29.643 12.792-40.389 30.743-5.044-1.418-11.964-2.998-19.736-3.788l12.753-29.388c9.261-4.873 33.056-18.845 41.907-37.859 6.339-13.59-.88-32.247-15.448-39.923-7.971-4.203-17.323-5.071-25.755-2.411-3.336-8.147-9.98-14.748-18.297-18.156-4.455-1.827-7.726-2.409-14.632-2.408-11.338.001-21.385 6.591-25.865 16.218-8.938 19.19-4.23 46.722-2.065 56.686l-25.406 58.548c-6.294-1.596-12.88-2.452-19.664-2.452-29.25 0-54.87 15.787-68.823 39.28l-15.633-27.153 47.466-27.474c4.772-2.763 6.408-8.867 3.656-13.646-14.665-25.464-38.345-43.668-66.681-51.261-28.278-7.578-57.809-3.671-83.153 11-35.479 20.536-54.877 58.379-54.832 96.505.022 18.272 4.966 36.736 14.711 53.656 1.325 2.302 3.512 3.981 6.077 4.669.852.228 1.722.341 2.588.341 1.744 0 3.474-.457 5.01-1.345l47.431-27.454 21.236 36.882h-41.053c-2.63 0-5.21 1.07-7.07 2.93s-2.93 4.44-2.93 7.07v37c0 14.25 1.44 28.49 4.27 42.32 2.76 13.49 6.87 26.75 12.23 39.42 5.27 12.45 11.78 24.45 19.37 35.67 7.51 11.12 16.14 21.58 25.64 31.08s19.96 18.13 31.08 25.64c11.22 7.59 23.22 14.1 35.67 19.37 12.67 5.36 25.93 9.47 39.42 12.23 13.83 2.83 28.862 4.27 42.32 4.27 15.5 0 32.19-1.83 47.75-5.45 15.13-3.52 29.89-8.75 43.88-15.54 13.73-6.68 26.78-14.88 38.78-24.4 11.92-9.45 22.83-20.22 32.44-32.01 3.48-4.27 2.84-10.58-1.43-14.07-1.78-1.45-4.03-2.25-6.32-2.25-3.02 0-5.85 1.35-7.76 3.69-36.29 44.5-90 70.03-147.34 70.03-50.74 0-98.45-19.77-134.35-55.65-35.88-35.9-55.65-83.61-55.65-134.35v-27h380v27c0 14.86-1.72 29.66-5.11 43.98-1.27 5.36 2.06 10.76 7.42 12.03.76.18 1.54.27 2.32.27 4.65 0 8.65-3.16 9.72-7.69 3.75-15.84 5.65-32.18 5.65-48.59v-30.227c5.142-2.368 12.392-6.39 19.585-12.685 12.05-10.544 26.415-29.701 26.415-61.088 0-13.849-7.037-27.096-18.825-35.435zm-190.441-52.734c.885-2.039 1.065-4.313.513-6.466-2.147-8.368-6.33-33.07.021-46.705 1.688-3.629 8.986-6.121 14.782-3.746 3.438 1.409 6.15 4.104 7.438 7.396 1.104 2.818 1.067 5.756-.104 8.273-.634 1.364-.935 2.798-.935 4.21 0 3.77 2.142 7.379 5.785 9.074 5.007 2.328 10.955.158 13.285-4.85 1.144-2.459 3.346-4.344 6.201-5.307 3.421-1.154 7.299-.805 10.639.956 5.554 2.927 8.345 10.142 6.646 13.783-6.309 13.552-27.998 26.241-35.813 29.982-2.181 1.039-3.912 2.832-4.874 5.047l-17.842 41.117c-9.285 1.506-18.521 4.985-26.403 11.684-1.876-1.244-3.802-2.418-5.785-3.503zm-64.734 71.169c33.084 0 60 26.916 60 60 0 4.758-.564 9.442-1.656 14h-116.688c-1.092-4.558-1.656-9.242-1.656-14 0-33.084 26.916-60 60-60zm-210.48 41.964c-18.078-41.389-2.574-90.811 37.332-113.909 13.81-7.994 29.136-12.077 44.669-12.077 7.766 0 15.586 1.022 23.289 3.085 19.93 5.34 37.045 17.105 49.076 33.549zm65.606-14.866 43.108-24.952 23.578 40.953c-1.176 5.452-1.812 11.103-1.812 16.901 0 4.727.41 9.404 1.223 14h-39.092zm361.246 46.902h-137.595c.813-4.596 1.223-9.273 1.223-14 0-20.481-7.745-39.182-20.449-53.349 19.929-13.292 53.416-.491 53.778-.35 4.823 1.904 10.298-.193 12.616-4.83 8.238-16.476 18.203-25.729 29.619-27.503 21.26-3.303 43.039 18.768 43.241 18.975 2.719 2.818 6.832 3.79 10.524 2.486 13.259-4.679 25.438-3.806 34.295 2.462 6.497 4.597 10.376 11.741 10.376 19.109 0 41.077-31.001 54.584-37.628 57z"/><circle cx="435.39" cy="374.525" r="10"/></g></g></svg>