<svg id="Layer_1" data-name="Layer 1" xmlns="http://www.w3.org/2000/svg" viewBox="0 0 512 512"><defs><style>.cls-1{fill:#757889;}.cls-2{fill:#d4d8dd;}.cls-3{opacity:0.08;}</style></defs><title>fish-flat</title><path class="cls-1" d="M123.21,401.59a12.77,12.77,0,0,1-9-21.8l229-229a12.77,12.77,0,1,1,18.06,18.06l-229,229A12.73,12.73,0,0,1,123.21,401.59Z"/><path class="cls-1" d="M357.9,281.37a12.73,12.73,0,0,1-9-3.74L234.39,163.14a12.77,12.77,0,0,1,18.06-18.06L366.93,259.57a12.77,12.77,0,0,1-9,21.8Z"/><path class="cls-1" d="M300.66,315.72a12.73,12.73,0,0,1-9-3.74L200,220.38a12.77,12.77,0,0,1,18.06-18.06l91.59,91.6a12.77,12.77,0,0,1-9,21.8Z"/><path class="cls-1" d="M243.42,350.07a12.73,12.73,0,0,1-9-3.74l-68.69-68.7a12.77,12.77,0,0,1,18.06-18.06l68.69,68.7a12.77,12.77,0,0,1-9,21.8Z"/><path class="cls-1" d="M186.18,384.42a12.73,12.73,0,0,1-9-3.74l-45.79-45.8a12.77,12.77,0,0,1,18.06-18.06l45.79,45.8a12.77,12.77,0,0,1-9,21.8Z"/><path class="cls-2" d="M508.93,34.26a36.25,36.25,0,0,0-31.19-31.2c-35.59-4.93-126-10.73-197.48,42.08a37.49,37.49,0,0,0-15.11,27.4,37,37,0,0,0,10.67,29L410.48,236.2A37,37,0,0,0,436.65,247c.93,0,1.87,0,2.81-.1a37.5,37.5,0,0,0,27.39-15.11C519.66,160.31,513.87,69.84,508.93,34.26Z"/><path class="cls-2" d="M135.21,407l-3.38,77.27A28.63,28.63,0,0,1,113.38,510a29.39,29.39,0,0,1-10.6,2,28.89,28.89,0,0,1-20.37-8.49L45.5,466.6l-37-37A29,29,0,0,1,27.75,380.2L105,376.81a29.07,29.07,0,0,1,30.2,30.2Z"/><circle class="cls-1" cx="380.8" cy="96.86" r="24.29" transform="translate(43.05 297.65) rotate(-45)"/><g class="cls-3"><path d="M135.21,407l-3.38,77.27A28.63,28.63,0,0,1,113.38,510a29.39,29.39,0,0,1-10.6,2,28.89,28.89,0,0,1-20.37-8.49L45.5,466.6l81.22-81.29A29,29,0,0,1,135.21,407Z"/></g><g class="cls-3"><path d="M508.93,34.26a36.25,36.25,0,0,0-31.19-31.2c-5-.7-11.23-1.39-18.23-2A40.29,40.29,0,0,1,464,14.62c5.39,38.86,11.72,137.69-46,215.73a40.93,40.93,0,0,1-6.36,6.79,36.91,36.91,0,0,0,25,9.83c.93,0,1.87,0,2.81-.1a37.5,37.5,0,0,0,27.39-15.11C519.66,160.31,513.87,69.84,508.93,34.26Z"/></g></svg>