<svg width="125" height="120" viewBox="0 0 125 120" fill="none" xmlns="http://www.w3.org/2000/svg">
<g id="sumoist">
<path id="LeftLeg" d="M122.054 113.172L118.75 110V94C118.75 87.373 113.154 82 106.25 82H68.75V100H100V118H119.971C121.163 118 122.237 117.312 122.693 116.255C123.15 115.197 122.897 113.981 122.054 113.172Z" fill="#FEC9A3"/>
<path id="RightLeg" d="M6.25 94V110L2.94597 113.172C2.10368 113.981 1.8514 115.197 2.30713 116.255C2.76286 117.312 3.8381 118 5.0293 118H25V100H68.75V82H18.75C11.8469 82 6.25 87.373 6.25 94V94Z" fill="#FEC9A3"/>
<path id="Vector" d="M56.25 82H68.75V100H56.25V82Z" fill="#D01515"/>
<path id="Vector_2" d="M97.9164 36H27.0833C13.2761 36 2.08333 46.7451 2.08333 59.9999V61.1562C2.08435 64.3144 3.05785 67.4023 4.88382 70.0302L10.0626 78.1698C11.5763 80.5497 14.271 81.9999 17.1752 81.9999H33.3332L21.763 63.4882C21.1547 62.5136 20.8333 61.3993 20.8333 60.2646C20.8333 56.8046 23.7548 53.9999 27.3589 53.9999H33.3332V81.9999H91.6664V53.9999H97.6417C101.245 53.9999 104.166 56.8046 104.166 60.2646C104.166 61.3993 103.846 62.5136 103.238 63.4882L91.6664 81.9999H107.824C110.729 81.9999 113.423 80.5497 114.937 78.1698L120.117 70.0302C121.942 67.4023 122.916 64.3144 122.916 61.1562V59.9999C122.916 46.7451 111.724 36 97.9164 36V36Z" fill="#FEC9A3"/>
<path id="Vector_3" d="M62.5 52C70.5546 52 77.0833 45.7324 77.0833 38V36H47.9167V38C47.9167 45.7324 54.4464 52 62.5 52Z" fill="#FEB784"/>
<path id="Vector_4" d="M75 14.75H50V10.75C50 6.33203 53.7313 2.75 58.3333 2.75H66.6667C71.2687 2.75 75 6.33203 75 10.75V14.75Z" fill="#2E3E51"/>
<path id="Vector_5" d="M43.0562 24.166L42.7816 23.6602C41.217 20.7588 41.3422 17.2852 43.1101 14.4941C44.8791 11.7041 48.0347 10 51.4374 10H72.7875C76.2624 10.001 79.4739 11.7764 81.2175 14.6611C82.961 17.5459 82.9732 21.1045 81.25 24L43.0562 24.166Z" fill="#35455C"/>
<g id="Group">
<path id="Vector_6" d="M62.5 10C70.5546 10 77.0833 16.2686 77.0833 24V34C77.0833 41.7324 70.5546 48 62.5 48C54.4464 48 47.9167 41.7324 47.9167 34V24C47.9167 16.2686 54.4464 10 62.5 10Z" fill="#FEC9A3"/>
<path id="Vector_7" d="M46.875 22H47.9167V36H46.875C42.8477 36 39.5833 32.8662 39.5833 29C39.5833 25.1338 42.8477 22 46.875 22Z" fill="#FEC9A3"/>
<path id="Vector_8" d="M78.125 36H77.0833V22H78.125C82.1523 22 85.4167 25.1338 85.4167 29C85.4167 32.8662 82.1523 36 78.125 36Z" fill="#FEC9A3"/>
</g>
<path id="Vector_9" d="M54.1667 10L62.5 16L70.8333 10H54.1667Z" fill="#35455C"/>
<path id="Vector_10" d="M53.5085 27.8984L54.8259 24.1055L61.0759 26.1055L59.7585 29.8984L53.5085 27.8984Z" fill="#D01515"/>
<path id="Vector_11" d="M63.9252 26.1035L70.1742 24.1016L71.4925 27.8945L65.2435 29.8965L63.9252 26.1035Z" fill="#D01515"/>
<path id="Vector_12" d="M68.3105 37.9561C64.4674 37.3018 60.5337 37.3018 56.6895 37.9561L55.8105 34.0439C60.2336 33.2686 64.7664 33.2686 69.1895 34.0439L68.3105 37.9561Z" fill="#F7A468"/>
<path id="Vector_13" d="M45.8333 65.9101C41.6473 65.8867 37.5427 64.793 33.9437 62.7402C33.4696 62.4853 33.1289 62.0518 33.0037 61.5439C32.8776 61.0371 32.9793 60.5019 33.2835 60.0703L33.4686 59.8125C34.0627 59.0117 35.201 58.7891 36.0728 59.3037C42.0685 62.8086 49.5992 62.8086 55.5939 59.3037C56.4657 58.7891 57.604 59.0117 58.198 59.8125L58.3832 60.0703C58.6873 60.5019 58.7891 61.0371 58.6639 61.5439C58.5378 62.0518 58.197 62.4853 57.723 62.7402C54.1239 64.793 50.0193 65.8867 45.8333 65.9101Z" fill="#FEB784"/>
<path id="Vector_14" d="M79.1667 65.9101C74.9807 65.8867 70.8761 64.793 67.277 62.7402C66.803 62.4853 66.4622 62.0518 66.3371 61.5439C66.2109 61.0371 66.3127 60.5019 66.6168 60.0703L66.802 59.8125C67.396 59.0117 68.5343 58.7891 69.4061 59.3037C75.4018 62.8086 82.9325 62.8086 88.9272 59.3037C89.799 58.7891 90.9373 59.0117 91.5314 59.8125L91.7165 60.0703C92.0207 60.5019 92.1224 61.0371 91.9973 61.5439C91.8711 62.0518 91.5304 62.4853 91.0563 62.7402C87.4573 64.793 83.3527 65.8867 79.1667 65.9101Z" fill="#FEB784"/>
<path id="Vector_15" d="M79.4271 72H91.9271V82H79.4271V72Z" fill="#D01515"/>
<path id="Vector_16" d="M33.3333 72H91.6667V82H33.3333V72Z" fill="#D01515"/>
<path id="Vector_17" d="M53.5085 27.8984L54.8259 24.1055L61.0759 26.1055L59.7585 29.8984L53.5085 27.8984Z" fill="black"/>
<path id="Vector_18" d="M63.9252 26.1035L70.1742 24.1016L71.4925 27.8945L65.2435 29.8965L63.9252 26.1035Z" fill="black"/>
<path id="Vector_19" d="M56.6895 37.9561C60.5337 37.3018 64.4674 37.3018 68.3105 37.9561L69.1895 34.0439C64.7664 33.2686 60.2336 33.2686 55.8105 34.0439L56.6895 37.9561Z" fill="black"/>
</g>
</svg>
